<svg xmlns="http://www.w3.org/2000/svg" xmlns:xlink="http://www.w3.org/1999/xlink" width="1877" zoomAndPan="magnify" viewBox="0 0 1407.75 242.249991" height="323" preserveAspectRatio="xMidYMid meet" version="1.0"><defs><g/><clipPath id="b11dea957d"><path d="M 2.046875 86 L 100 86 L 100 177 L 2.046875 177 Z M 2.046875 86 " clip-rule="nonzero"/></clipPath><clipPath id="ec6fa6e82f"><path d="M 1364 85 L 1402.140625 85 L 1402.140625 177 L 1364 177 Z M 1364 85 " clip-rule="nonzero"/></clipPath></defs><g clip-path="url(#b11dea957d)"><g fill="#0e2b5c" fill-opacity="1"><g transform="translate(-1.066676, 176.068634)"><g><path d="M 35.0625 -38.09375 L 35.0625 -6.703125 L 46.609375 -4.890625 L 46.609375 0 L 3.21875 0 L 3.21875 -4.890625 L 13.875 -6.703125 L 13.875 -83.28125 L 2.34375 -85.03125 L 2.34375 -89.921875 L 45.328125 -89.921875 C 58.554688 -89.921875 68.429688 -87.882812 74.953125 -83.8125 C 81.484375 -79.75 84.75 -73.40625 84.75 -64.78125 C 84.75 -51.90625 78.71875 -43.632812 66.65625 -39.96875 L 90.65625 -6.703125 L 100.375 -4.890625 L 100.375 0 L 71.28125 0 L 46.203125 -38.09375 Z M 63.84375 -64.640625 C 63.84375 -71.347656 62.453125 -76.007812 59.671875 -78.625 C 56.898438 -81.238281 51.828125 -82.546875 44.453125 -82.546875 L 35.0625 -82.546875 L 35.0625 -45.46875 L 44.796875 -45.46875 C 51.679688 -45.46875 56.578125 -46.894531 59.484375 -49.75 C 62.390625 -52.613281 63.84375 -57.578125 63.84375 -64.640625 Z M 63.84375 -64.640625 "/></g></g></g></g><g fill="#0e2b5c" fill-opacity="1"><g transform="translate(94.884934, 176.068634)"><g><path d="M 20.78125 0 L 20.78125 -4.890625 L 35.0625 -6.703125 L 35.0625 -82.8125 L 31.65625 -82.8125 C 21.414062 -82.8125 14.21875 -82.363281 10.0625 -81.46875 L 8.25 -64.78125 L 2.140625 -64.78125 L 2.140625 -89.921875 L 89.515625 -89.921875 L 89.515625 -64.78125 L 83.34375 -64.78125 L 81.53125 -81.46875 C 77.820312 -82.269531 70.492188 -82.671875 59.546875 -82.671875 L 56.265625 -82.671875 L 56.265625 -6.703125 L 70.546875 -4.890625 L 70.546875 0 Z M 20.78125 0 "/></g></g></g><g fill="#0e2b5c" fill-opacity="1"><g transform="translate(188.087913, 176.068634)"><g><path d="M 35 -38.359375 L 35 -6.703125 L 49.953125 -4.890625 L 49.953125 0 L 3.21875 0 L 3.21875 -4.890625 L 13.875 -6.703125 L 13.875 -83.28125 L 2.34375 -85.03125 L 2.34375 -89.921875 L 77.3125 -89.921875 L 77.3125 -65.71875 L 71.015625 -65.71875 L 68.859375 -81.609375 C 66.671875 -81.921875 63.050781 -82.15625 58 -82.3125 C 52.945312 -82.46875 48.96875 -82.546875 46.0625 -82.546875 L 35 -82.546875 L 35 -45.734375 L 56.921875 -45.734375 L 59.015625 -57.125 L 64.96875 -57.125 L 64.96875 -26.828125 L 59.015625 -26.828125 L 56.921875 -38.359375 Z M 35 -38.359375 "/></g></g></g><path fill="#d0d0d0" d="M 221.089844 67.007812 L 222.707031 67.007812 L 222.707031 204.34375 L 221.089844 204.34375 Z M 221.089844 67.007812 " fill-opacity="1" fill-rule="nonzero"/><g fill="#0e2b5c" fill-opacity="1"><g transform="translate(257.442395, 176.068634)"><g><path d="M 35.0625 -38.09375 L 35.0625 -6.703125 L 46.609375 -4.890625 L 46.609375 0 L 3.21875 0 L 3.21875 -4.890625 L 13.875 -6.703125 L 13.875 -83.28125 L 2.34375 -85.03125 L 2.34375 -89.921875 L 45.328125 -89.921875 C 58.554688 -89.921875 68.429688 -87.882812 74.953125 -83.8125 C 81.484375 -79.75 84.75 -73.40625 84.75 -64.78125 C 84.75 -51.90625 78.71875 -43.632812 66.65625 -39.96875 L 90.65625 -6.703125 L 100.375 -4.890625 L 100.375 0 L 71.28125 0 L 46.203125 -38.09375 Z M 63.84375 -64.640625 C 63.84375 -71.347656 62.453125 -76.007812 59.671875 -78.625 C 56.898438 -81.238281 51.828125 -82.546875 44.453125 -82.546875 L 35.0625 -82.546875 L 35.0625 -45.46875 L 44.796875 -45.46875 C 51.679688 -45.46875 56.578125 -46.894531 59.484375 -49.75 C 62.390625 -52.613281 63.84375 -57.578125 63.84375 -64.640625 Z M 63.84375 -64.640625 "/></g></g></g><g fill="#0e2b5c" fill-opacity="1"><g transform="translate(361.453078, 176.068634)"><g><path d="M 2.34375 -4.890625 L 13.875 -6.703125 L 13.875 -83.28125 L 2.34375 -85.03125 L 2.34375 -89.921875 L 78.921875 -89.921875 L 78.921875 -67.0625 L 72.828125 -67.0625 L 70.671875 -81.609375 C 65.671875 -82.234375 58.429688 -82.546875 48.953125 -82.546875 L 35 -82.546875 L 35 -49.546875 L 58.53125 -49.546875 L 60.625 -59.484375 L 66.578125 -59.484375 L 66.578125 -31.84375 L 60.625 -31.84375 L 58.53125 -42.046875 L 35 -42.046875 L 35 -7.375 L 51.96875 -7.375 C 63.5 -7.375 71.050781 -7.734375 74.625 -8.453125 L 78.453125 -25.078125 L 84.5625 -25.078125 L 83.28125 0 L 2.34375 0 Z M 2.34375 -4.890625 "/></g></g></g><g fill="#0e2b5c" fill-opacity="1"><g transform="translate(457.887357, 176.068634)"><g><path d="M 28.703125 -4.890625 L 28.703125 0 L 1.34375 0 L 1.34375 -4.890625 L 8.046875 -6.703125 L 40.03125 -90.65625 L 59.484375 -90.65625 L 91.328125 -6.703125 L 98.171875 -4.890625 L 98.171875 0 L 58.140625 0 L 58.140625 -4.890625 L 68.53125 -6.703125 L 59.953125 -29.96875 L 25.40625 -29.96875 L 17.171875 -6.703125 Z M 42.984375 -77.109375 L 28.15625 -37.34375 L 57.40625 -37.34375 Z M 42.984375 -77.109375 "/></g></g></g><g fill="#0e2b5c" fill-opacity="1"><g transform="translate(561.898052, 176.068634)"><g><path d="M 48.890625 -85.03125 L 35 -83.28125 L 35 -7.109375 L 53.3125 -7.109375 C 62.832031 -7.109375 69.828125 -7.554688 74.296875 -8.453125 L 79.796875 -27.15625 L 85.828125 -27.15625 L 83.28125 0 L 2.34375 0 L 2.34375 -4.890625 L 13.875 -6.703125 L 13.875 -83.28125 L 2.40625 -85.03125 L 2.40625 -89.921875 L 48.890625 -89.921875 Z M 48.890625 -85.03125 "/></g></g></g><g fill="#0e2b5c" fill-opacity="1"><g transform="translate(650.755389, 176.068634)"><g/></g></g><g fill="#0e2b5c" fill-opacity="1"><g transform="translate(687.449877, 176.068634)"><g><path d="M 20.78125 0 L 20.78125 -4.890625 L 35.0625 -6.703125 L 35.0625 -82.8125 L 31.65625 -82.8125 C 21.414062 -82.8125 14.21875 -82.363281 10.0625 -81.46875 L 8.25 -64.78125 L 2.140625 -64.78125 L 2.140625 -89.921875 L 89.515625 -89.921875 L 89.515625 -64.78125 L 83.34375 -64.78125 L 81.53125 -81.46875 C 77.820312 -82.269531 70.492188 -82.671875 59.546875 -82.671875 L 56.265625 -82.671875 L 56.265625 -6.703125 L 70.546875 -4.890625 L 70.546875 0 Z M 20.78125 0 "/></g></g></g><g fill="#0e2b5c" fill-opacity="1"><g transform="translate(783.884189, 176.068634)"><g><path d="M 37.28125 -6.703125 L 48.8125 -4.96875 L 48.8125 0 L 4.625 0 L 4.625 -4.96875 L 16.15625 -6.703125 L 16.15625 -83.21875 L 4.625 -85.03125 L 4.625 -89.921875 L 48.8125 -89.921875 L 48.8125 -85.03125 L 37.28125 -83.21875 Z M 37.28125 -6.703125 "/></g></g></g><g fill="#0e2b5c" fill-opacity="1"><g transform="translate(842.168216, 176.068634)"><g><path d="M 59.140625 0 L 55.453125 0 L 22.265625 -75.96875 L 22.265625 -6.703125 L 34.328125 -4.890625 L 34.328125 0 L 2.34375 0 L 2.34375 -4.890625 L 13.875 -6.703125 L 13.875 -83.28125 L 2.34375 -85.03125 L 2.34375 -89.921875 L 37.6875 -89.921875 L 63.359375 -30.78125 L 89.578125 -89.921875 L 125.65625 -89.921875 L 125.65625 -85.03125 L 114.125 -83.28125 L 114.125 -6.703125 L 125.65625 -4.890625 L 125.65625 0 L 80.9375 0 L 80.9375 -4.890625 L 93 -6.703125 L 93 -75.96875 Z M 59.140625 0 "/></g></g></g><g fill="#0e2b5c" fill-opacity="1"><g transform="translate(976.618626, 176.068634)"><g><path d="M 2.34375 -4.890625 L 13.875 -6.703125 L 13.875 -83.28125 L 2.34375 -85.03125 L 2.34375 -89.921875 L 78.921875 -89.921875 L 78.921875 -67.0625 L 72.828125 -67.0625 L 70.671875 -81.609375 C 65.671875 -82.234375 58.429688 -82.546875 48.953125 -82.546875 L 35 -82.546875 L 35 -49.546875 L 58.53125 -49.546875 L 60.625 -59.484375 L 66.578125 -59.484375 L 66.578125 -31.84375 L 60.625 -31.84375 L 58.53125 -42.046875 L 35 -42.046875 L 35 -7.375 L 51.96875 -7.375 C 63.5 -7.375 71.050781 -7.734375 74.625 -8.453125 L 78.453125 -25.078125 L 84.5625 -25.078125 L 83.28125 0 L 2.34375 0 Z M 2.34375 -4.890625 "/></g></g></g><g fill="#0e2b5c" fill-opacity="1"><g transform="translate(1073.052938, 176.068634)"><g/></g></g><g fill="#0e2b5c" fill-opacity="1"><g transform="translate(1112.22831, 176.068634)"><g><path d="M 35 -38.359375 L 35 -6.703125 L 49.953125 -4.890625 L 49.953125 0 L 3.21875 0 L 3.21875 -4.890625 L 13.875 -6.703125 L 13.875 -83.28125 L 2.34375 -85.03125 L 2.34375 -89.921875 L 77.3125 -89.921875 L 77.3125 -65.71875 L 71.015625 -65.71875 L 68.859375 -81.609375 C 66.671875 -81.921875 63.050781 -82.15625 58 -82.3125 C 52.945312 -82.46875 48.96875 -82.546875 46.0625 -82.546875 L 35 -82.546875 L 35 -45.734375 L 56.921875 -45.734375 L 59.015625 -57.125 L 64.96875 -57.125 L 64.96875 -26.828125 L 59.015625 -26.828125 L 56.921875 -38.359375 Z M 35 -38.359375 "/></g></g></g><g fill="#0e2b5c" fill-opacity="1"><g transform="translate(1200.952099, 176.068634)"><g><path d="M 37.28125 -6.703125 L 48.8125 -4.96875 L 48.8125 0 L 4.625 0 L 4.625 -4.96875 L 16.15625 -6.703125 L 16.15625 -83.21875 L 4.625 -85.03125 L 4.625 -89.921875 L 48.8125 -89.921875 L 48.8125 -85.03125 L 37.28125 -83.21875 Z M 37.28125 -6.703125 "/></g></g></g><g fill="#0e2b5c" fill-opacity="1"><g transform="translate(1259.236217, 176.068634)"><g><path d="M 77.453125 -83.28125 L 65.375 -85.03125 L 65.375 -89.921875 L 97.359375 -89.921875 L 97.359375 -85.03125 L 85.828125 -83.28125 L 85.828125 0 L 77.984375 0 L 22.53125 -72.28125 L 22.53125 -6.703125 L 34.59375 -4.890625 L 34.59375 0 L 2.609375 0 L 2.609375 -4.890625 L 14.15625 -6.703125 L 14.15625 -83.28125 L 2.609375 -85.03125 L 2.609375 -89.921875 L 33.390625 -89.921875 L 77.453125 -32.453125 Z M 77.453125 -83.28125 "/></g></g></g><g clip-path="url(#ec6fa6e82f)"><g fill="#0e2b5c" fill-opacity="1"><g transform="translate(1363.246821, 176.068634)"><g><path d="M 28.703125 -4.890625 L 28.703125 0 L 1.34375 0 L 1.34375 -4.890625 L 8.046875 -6.703125 L 40.03125 -90.65625 L 59.484375 -90.65625 L 91.328125 -6.703125 L 98.171875 -4.890625 L 98.171875 0 L 58.140625 0 L 58.140625 -4.890625 L 68.53125 -6.703125 L 59.953125 -29.96875 L 25.40625 -29.96875 L 17.171875 -6.703125 Z M 42.984375 -77.109375 L 28.15625 -37.34375 L 57.40625 -37.34375 Z M 42.984375 -77.109375 "/></g></g></g></g></svg>