<svg width="2166" height="206" viewBox="0 0 2166 206" fill="none" xmlns="http://www.w3.org/2000/svg">
<path d="M9.35724 165V41.3636H60.4297C69.6863 41.3636 77.6752 43.0339 84.3963 46.3743C91.1577 49.6745 96.3696 54.4235 100.032 60.6214C103.694 66.7791 105.526 74.0838 105.526 82.5355C105.526 91.108 103.654 98.3925 99.9112 104.389C96.1683 110.346 90.8558 114.893 83.9737 118.033C77.0916 121.132 68.9418 122.681 59.5242 122.681H27.2266V99.1371H53.9702C58.4777 99.1371 62.2408 98.5535 65.2592 97.3864C68.3179 96.179 70.6321 94.3679 72.2017 91.9531C73.7713 89.4981 74.5561 86.3589 74.5561 82.5355C74.5561 78.7121 73.7713 75.5528 72.2017 73.0575C70.6321 70.522 68.3179 68.6304 65.2592 67.3828C62.2005 66.0949 58.4375 65.451 53.9702 65.451H39.2401V165H9.35724ZM78.9631 108.494L109.751 165H77.152L46.9673 108.494H78.9631ZM117.871 65.6321V41.3636H222.37V65.6321H184.881V165H155.421V65.6321H117.871ZM236.965 165V41.3636H321.361V65.6321H266.847V90.9872H315.988V115.316H266.847V165H236.965Z" />
<path d="M493.195 165V41.3636H539.558C549.056 41.3636 557.025 43.0137 563.464 46.3139C569.944 49.6141 574.834 54.2424 578.134 60.1989C581.475 66.1151 583.145 73.0173 583.145 80.9055C583.145 88.834 581.455 95.7161 578.074 101.552C574.733 107.347 569.803 111.835 563.283 115.014C556.763 118.153 548.755 119.723 539.256 119.723H506.234V101.129H536.238C541.792 101.129 546.34 100.365 549.881 98.8352C553.423 97.2656 556.039 94.9917 557.729 92.0135C559.46 88.995 560.325 85.2924 560.325 80.9055C560.325 76.5187 559.46 72.7758 557.729 69.6768C555.999 66.5376 553.363 64.1631 549.821 62.5533C546.279 60.9032 541.711 60.0781 536.117 60.0781H515.592V165H493.195ZM557.065 108.977L587.673 165H562.68L532.616 108.977H557.065ZM603.761 165V41.3636H684.173V60.1385H626.158V93.7038H680.007V112.479H626.158V146.225H684.656V165H603.761ZM722.9 165H698.994L742.52 41.3636H770.169L813.756 165H789.849L756.827 66.7188H755.862L722.9 165ZM723.685 116.523H788.884V134.513H723.685V116.523ZM830.04 165V41.3636H852.437V146.225H906.89V165H830.04ZM963.064 60.1385V41.3636H1061.71V60.1385H1023.49V165H1001.28V60.1385H963.064ZM1103.12 41.3636V165H1080.72V41.3636H1103.12ZM1127.37 41.3636H1154.78L1191.49 130.952H1192.94L1229.64 41.3636H1257.05V165H1235.56V80.0604H1234.41L1200.24 164.638H1184.18L1150.01 79.8793H1148.87V165H1127.37V41.3636ZM1281.44 165V41.3636H1361.85V60.1385H1303.83V93.7038H1357.68V112.479H1303.83V146.225H1362.33V165H1281.44ZM1426.87 165V41.3636H1506.07V60.1385H1449.26V93.7038H1500.64V112.479H1449.26V165H1426.87ZM1548.87 41.3636V165H1526.48V41.3636H1548.87ZM1674.73 41.3636V165H1654.81L1596.55 80.7848H1595.52V165H1573.13V41.3636H1593.17L1651.36 125.639H1652.45V41.3636H1674.73ZM1715.01 165H1691.1L1734.63 41.3636H1762.28L1805.87 165H1781.96L1748.94 66.7188H1747.97L1715.01 165ZM1715.79 116.523H1780.99V134.513H1715.79V116.523ZM1923.75 41.3636V165H1903.83L1845.57 80.7848H1844.55V165H1822.15V41.3636H1842.19L1900.39 125.639H1901.47V41.3636H1923.75ZM2053.98 83.0788H2031.4C2030.76 79.3762 2029.57 76.0961 2027.84 73.2386C2026.11 70.3409 2023.96 67.8859 2021.38 65.8736C2018.81 63.8613 2015.87 62.352 2012.57 61.3459C2009.31 60.2995 2005.79 59.7763 2002 59.7763C1995.28 59.7763 1989.33 61.4666 1984.14 64.8473C1978.94 68.1877 1974.88 73.0978 1971.94 79.5774C1969 86.0168 1967.53 93.8849 1967.53 103.182C1967.53 112.64 1969 120.608 1971.94 127.088C1974.92 133.527 1978.98 138.397 1984.14 141.697C1989.33 144.957 1995.26 146.587 2001.94 146.587C2005.65 146.587 2009.11 146.104 2012.33 145.138C2015.59 144.132 2018.51 142.663 2021.08 140.732C2023.7 138.8 2025.89 136.425 2027.66 133.608C2029.47 130.791 2030.72 127.571 2031.4 123.949L2053.98 124.07C2053.14 129.946 2051.31 135.459 2048.49 140.611C2045.71 145.762 2042.07 150.31 2037.56 154.254C2033.05 158.158 2027.78 161.217 2021.75 163.43C2015.71 165.604 2009.01 166.69 2001.64 166.69C1990.78 166.69 1981.08 164.175 1972.54 159.144C1964.01 154.113 1957.29 146.849 1952.38 137.351C1947.47 127.853 1945.02 116.463 1945.02 103.182C1945.02 89.8603 1947.49 78.4706 1952.44 69.0128C1957.39 59.5147 1964.13 52.2502 1972.67 47.2195C1981.2 42.1887 1990.86 39.6733 2001.64 39.6733C2008.52 39.6733 2014.92 40.6392 2020.84 42.571C2026.76 44.5028 2032.03 47.3402 2036.66 51.0831C2041.29 54.7857 2045.09 59.3336 2048.07 64.7266C2051.09 70.0793 2053.06 76.1967 2053.98 83.0788ZM2074.49 165V41.3636H2154.91V60.1385H2096.89V93.7038H2150.74V112.479H2096.89V146.225H2155.39V165H2074.49Z" />
<rect x="396" y="34" width="17" height="138" fill="#C7C7C7"/>
</svg>
