<svg width="2725" height="323" viewBox="0 0 2725 323" fill="none" xmlns="http://www.w3.org/2000/svg">
<g clip-path="url(#clip0_1_2)">
<path d="M213.996 225V101.364H262.774C272.111 101.364 280.08 103.034 286.68 106.374C293.321 109.674 298.372 114.363 301.833 120.44C305.334 126.477 307.085 133.581 307.085 141.751C307.085 149.961 305.314 157.024 301.773 162.94C298.231 168.816 293.1 173.324 286.378 176.463C279.698 179.602 271.608 181.172 262.11 181.172H229.45V160.163H257.884C262.875 160.163 267.02 159.479 270.32 158.111C273.62 156.742 276.075 154.69 277.685 151.953C279.335 149.216 280.16 145.816 280.16 141.751C280.16 137.646 279.335 134.184 277.685 131.367C276.075 128.55 273.6 126.417 270.26 124.968C266.96 123.479 262.794 122.734 257.763 122.734H240.136V225H213.996ZM280.764 168.736L311.492 225H282.636L252.572 168.736H280.764ZM320.849 122.915V101.364H422.391V122.915H384.539V225H358.701V122.915H320.849ZM439.113 225V101.364H520.974V122.915H465.253V152.376H515.54V173.928H465.253V225H439.113Z" fill="black"/>
<path d="M595.5 78.5V247.5H590.5V78.5H595.5Z" fill="#D0D0D0" stroke="#D0D0D0"/>
<path d="M678.567 225V101.364H727.345C736.682 101.364 744.651 103.034 751.251 106.374C757.892 109.674 762.943 114.363 766.404 120.44C769.906 126.477 771.656 133.581 771.656 141.751C771.656 149.961 769.885 157.024 766.344 162.94C762.802 168.816 757.671 173.324 750.95 176.463C744.269 179.602 736.179 181.172 726.681 181.172H694.021V160.163H722.455C727.446 160.163 731.591 159.479 734.891 158.111C738.191 156.742 740.647 154.69 742.256 151.953C743.906 149.216 744.731 145.816 744.731 141.751C744.731 137.646 743.906 134.184 742.256 131.367C740.647 128.55 738.171 126.417 734.831 124.968C731.531 123.479 727.365 122.734 722.334 122.734H704.707V225H678.567ZM745.335 168.736L776.063 225H747.207L717.143 168.736H745.335ZM790.129 225V101.364H873.439V122.915H816.269V152.376H869.153V173.928H816.269V203.448H873.68V225H790.129ZM915.531 225H887.52L930.201 101.364H963.887L1006.51 225H978.497L947.527 129.616H946.561L915.531 225ZM913.781 176.403H979.945V196.808H913.781V176.403ZM1021.39 225V101.364H1047.53V203.448H1100.53V225H1021.39ZM1152.48 122.915V101.364H1254.02V122.915H1216.17V225H1190.33V122.915H1152.48ZM1296.88 101.364V225H1270.74V101.364H1296.88ZM1318.39 101.364H1350.63L1384.68 184.432H1386.13L1420.17 101.364H1452.41V225H1427.06V144.528H1426.03L1394.03 224.396H1376.77L1344.77 144.226H1343.75V225H1318.39V101.364ZM1473.95 225V101.364H1557.26V122.915H1500.09V152.376H1552.97V173.928H1500.09V203.448H1557.5V225H1473.95ZM1617.39 225V101.364H1699.25V122.915H1643.52V152.376H1693.81V173.928H1643.52V225H1617.39ZM1742.97 101.364V225H1716.83V101.364H1742.97ZM1867.89 101.364V225H1845.31L1791.52 147.184H1790.61V225H1764.47V101.364H1787.42L1840.78 179.119H1841.87V101.364H1867.89ZM1910.8 225H1882.78L1925.46 101.364H1959.15L2001.77 225H1973.76L1942.79 129.616H1941.82L1910.8 225ZM1909.04 176.403H1975.21V196.808H1909.04V176.403ZM2120.07 101.364V225H2097.49L2043.7 147.184H2042.79V225H2016.65V101.364H2039.59L2092.96 179.119H2094.05V101.364H2120.07ZM2250.75 144.648H2224.31C2223.83 141.228 2222.84 138.189 2221.35 135.533C2219.86 132.836 2217.95 130.542 2215.61 128.651C2213.28 126.759 2210.58 125.31 2207.53 124.304C2204.51 123.298 2201.23 122.795 2197.69 122.795C2191.29 122.795 2185.71 124.384 2180.96 127.564C2176.21 130.703 2172.53 135.291 2169.92 141.328C2167.3 147.325 2165.99 154.609 2165.99 163.182C2165.99 171.996 2167.3 179.401 2169.92 185.398C2172.57 191.394 2176.27 195.922 2181.02 198.981C2185.77 202.04 2191.27 203.569 2197.5 203.569C2201.01 203.569 2204.25 203.106 2207.22 202.18C2210.24 201.255 2212.92 199.906 2215.25 198.136C2217.59 196.325 2219.52 194.131 2221.05 191.555C2222.62 188.98 2223.7 186.042 2224.31 182.741L2250.75 182.862C2250.07 188.537 2248.36 194.01 2245.62 199.283C2242.92 204.515 2239.28 209.203 2234.69 213.349C2230.14 217.454 2224.71 220.714 2218.39 223.129C2212.11 225.503 2205.01 226.69 2197.08 226.69C2186.05 226.69 2176.19 224.195 2167.5 219.205C2158.85 214.214 2152.01 206.99 2146.97 197.532C2141.98 188.074 2139.49 176.624 2139.49 163.182C2139.49 149.699 2142.02 138.229 2147.1 128.771C2152.17 119.313 2159.05 112.109 2167.74 107.159C2176.44 102.169 2186.21 99.6733 2197.08 99.6733C2204.25 99.6733 2210.89 100.679 2217 102.692C2223.16 104.704 2228.61 107.642 2233.36 111.506C2238.11 115.329 2241.98 120.018 2244.95 125.572C2247.97 131.126 2249.9 137.485 2250.75 144.648ZM2269.49 225V101.364H2352.8V122.915H2295.63V152.376H2348.52V173.928H2295.63V203.448H2353.05V225H2269.49Z" fill="black"/>
</g>
<defs>
<clipPath id="clip0_1_2">
<rect width="2725" height="323" fill="white"/>
</clipPath>
</defs>
</svg>
