<svg width="1381" height="169" viewBox="0 0 1381 169" fill="none" xmlns="http://www.w3.org/2000/svg">
<path d="M111.906 117.724V53.0356H137.414C142.297 53.0356 146.464 53.9094 149.915 55.657C153.388 57.3836 156.029 59.837 157.839 63.0166C159.67 66.1753 160.586 69.8922 160.586 74.1669C160.586 78.4626 159.66 82.1581 157.808 85.2534C155.956 88.3279 153.272 90.6865 149.757 92.3289C146.264 93.9713 142.034 94.7928 137.067 94.7928H119.988V83.8004H134.857C137.467 83.8004 139.634 83.4426 141.36 82.7268C143.086 82.0105 144.37 80.9369 145.211 79.5048C146.074 78.0728 146.506 76.2938 146.506 74.1669C146.506 72.0191 146.074 70.2077 145.211 68.7338C144.37 67.2599 143.075 66.1439 141.329 65.3857C139.603 64.6067 137.424 64.2169 134.794 64.2169H125.576V117.724H111.906ZM146.822 88.286L162.89 117.724H147.8L132.079 88.286H146.822ZM167.783 64.3116V53.0356H220.883V64.3116H201.089V117.724H187.578V64.3116H167.783ZM229.628 117.724V53.0356H272.436V64.3116H243.297V79.7261H269.594V91.0026H243.297V117.724H229.628Z" fill="black"/>
<path d="M313 41V129H307V41H313Z" fill="#D0D0D0" stroke="#D0D0D0"/>
<path d="M354.847 117.724V53.0357H380.355C385.237 53.0357 389.405 53.9094 392.856 55.657C396.329 57.3836 398.97 59.837 400.78 63.0166C402.611 66.1753 403.527 69.8922 403.527 74.167C403.527 78.4626 402.6 82.1581 400.749 85.2535C398.897 88.3279 396.213 90.6866 392.699 92.329C389.205 93.9713 384.974 94.7928 380.008 94.7928H362.928V83.8005H377.798C380.408 83.8005 382.575 83.4426 384.301 82.7268C386.027 82.0105 387.311 80.9369 388.152 79.5048C389.015 78.0728 389.447 76.2938 389.447 74.167C389.447 72.0191 389.015 70.2077 388.152 68.7338C387.311 67.2599 386.016 66.1439 384.269 65.3858C382.544 64.6067 380.365 64.2169 377.734 64.2169H368.517V117.724H354.847ZM389.762 88.286L405.831 117.724H390.741L375.02 88.286H389.762ZM413.187 117.724V53.0357H456.753V64.3116H426.856V79.7262H454.511V91.0026H426.856V106.448H456.879V117.724H413.187ZM478.764 117.724H464.116L486.435 53.0357H504.051L526.34 117.724H511.691L495.496 67.8177H494.991L478.764 117.724ZM477.849 92.2976H512.448V102.974H477.849V92.2976ZM534.121 117.724V53.0357H547.791V106.448H575.507V117.724H534.121ZM602.673 64.3116V53.0357H655.772V64.3116H635.979V117.724H622.466V64.3116H602.673ZM678.185 53.0357V117.724H664.515V53.0357H678.185ZM689.433 53.0357H706.293L724.099 96.4985H724.857L742.658 53.0357H759.517V117.724H746.261V75.6199H745.722L728.988 117.408H719.962L703.228 75.4619H702.695V117.724H689.433V53.0357ZM770.781 117.724V53.0357H814.347V64.3116H784.451V79.7262H812.104V91.0026H784.451V106.448H814.473V117.724H770.781ZM845.791 117.724V53.0357H888.599V64.3116H859.456V79.7262H885.754V91.0026H859.456V117.724H845.791ZM911.461 53.0357V117.724H897.792V53.0357H911.461ZM976.787 53.0357V117.724H964.979L936.85 77.0096H936.374V117.724H922.705V53.0357H934.706L962.61 93.7186H963.18V53.0357H976.787ZM999.226 117.724H984.573L1006.89 53.0357H1024.51L1046.8 117.724H1032.15L1015.95 67.8177H1015.45L999.226 117.724ZM998.305 92.2976H1032.91V102.974H998.305V92.2976ZM1108.66 53.0357V117.724H1096.85L1068.72 77.0096H1068.25V117.724H1054.58V53.0357H1066.57L1094.48 93.7186H1095.05V53.0357H1108.66ZM1177 75.6827H1163.17C1162.92 73.8933 1162.4 72.3032 1161.62 70.9136C1160.84 69.5024 1159.85 68.3022 1158.62 67.3128C1157.4 66.3228 1155.99 65.5647 1154.4 65.0383C1152.82 64.512 1151.1 64.2488 1149.25 64.2488C1145.9 64.2488 1142.99 65.0802 1140.5 66.744C1138.02 68.3864 1136.09 70.7869 1134.73 73.9456C1133.36 77.0834 1132.67 80.8945 1132.67 85.3801C1132.67 89.9917 1133.36 93.8662 1134.73 97.0039C1136.11 100.141 1138.05 102.51 1140.53 104.111C1143.02 105.711 1145.89 106.511 1149.15 106.511C1150.99 106.511 1152.68 106.269 1154.23 105.785C1155.81 105.301 1157.22 104.595 1158.43 103.669C1159.66 102.721 1160.67 101.573 1161.47 100.225C1162.29 98.8781 1162.85 97.3409 1163.17 95.6137L1177 95.677C1176.64 98.6463 1175.75 101.51 1174.32 104.269C1172.9 107.006 1171 109.459 1168.6 111.628C1166.22 113.776 1163.38 115.482 1160.08 116.746C1156.79 117.988 1153.08 118.609 1148.93 118.609C1143.16 118.609 1138.01 117.303 1133.46 114.692C1128.94 112.081 1125.36 108.301 1122.73 103.353C1120.12 98.4041 1118.82 92.4132 1118.82 85.3801C1118.82 78.3255 1120.14 72.3242 1122.8 67.3756C1125.45 62.4269 1129.04 58.6577 1133.59 56.0677C1138.14 53.4569 1143.25 52.1511 1148.93 52.1511C1152.68 52.1511 1156.15 52.6773 1159.35 53.7305C1162.57 54.7832 1165.42 56.3204 1167.9 58.3422C1170.39 60.3424 1172.41 62.7958 1173.96 65.7018C1175.54 68.6077 1176.55 71.9349 1177 75.6827ZM1186.8 117.724V53.0357H1230.36V64.3116H1200.47V79.7262H1228.13V91.0026H1200.47V106.448H1230.49V117.724H1186.8Z" fill="black"/>
</svg>
