<svg width="113" height="51" viewBox="0 0 113 51" fill="none" xmlns="http://www.w3.org/2000/svg">
<path d="M27.456 18.728L32.32 18.184L36.512 26.216C36.64 26.472 36.7893 26.664 36.96 26.792C37.1307 26.92 37.3227 27.016 37.536 27.08C37.7707 27.1227 38.0267 27.144 38.304 27.144H38.56V29H32.224L27.456 18.728ZM24.736 26.824C24.736 26.888 24.7893 26.9413 24.896 26.984C25.024 27.0053 25.184 27.0373 25.376 27.08C25.568 27.1013 25.7813 27.1227 26.016 27.144C26.2507 27.144 26.4747 27.144 26.688 27.144H27.04V29H17.12V27.144H17.472C18.0907 27.144 18.6027 27.0693 19.008 26.92C19.4133 26.7707 19.616 26.4613 19.616 25.992V9.288C19.616 8.81867 19.4133 8.50933 19.008 8.36C18.6027 8.21067 18.0907 8.136 17.472 8.136H17.12V6.28H27.936C29.7707 6.28 31.328 6.54667 32.608 7.08C33.888 7.61333 34.8587 8.37067 35.52 9.352C36.2027 10.3333 36.544 11.4747 36.544 12.776C36.544 13.992 36.2667 15.0693 35.712 16.008C35.1573 16.9253 34.3467 17.672 33.28 18.248C32.2133 18.824 30.9013 19.1973 29.344 19.368C29.1733 19.3893 28.9813 19.4213 28.768 19.464C28.5547 19.4853 28.3307 19.5067 28.096 19.528C27.8827 19.528 27.6587 19.528 27.424 19.528H24.064V17.416H27.072C28.032 17.416 28.8213 17.2347 29.44 16.872C30.0587 16.488 30.5067 15.9547 30.784 15.272C31.0827 14.568 31.232 13.736 31.232 12.776C31.232 11.88 31.0827 11.112 30.784 10.472C30.4853 9.832 30.0373 9.34133 29.44 9C28.8427 8.63733 28.096 8.456 27.2 8.456H24.736V26.824ZM55.8275 25.992V8.456H54.5475C53.7155 8.456 53.0328 8.488 52.4995 8.552C51.9875 8.616 51.6035 8.75467 51.3475 8.968C51.0915 9.18133 50.9422 9.48 50.8995 9.864L50.6115 13.224H48.2435V6.28H68.5635V13.224H66.1955L65.8755 9.864C65.8542 9.48 65.7048 9.18133 65.4275 8.968C65.1715 8.75467 64.7875 8.616 64.2755 8.552C63.7635 8.488 63.0915 8.456 62.2595 8.456H60.9475V25.992C60.9475 26.4613 61.1502 26.7707 61.5555 26.92C61.9608 27.0693 62.4835 27.144 63.1235 27.144H63.6035V29H53.2035V27.144H53.6835C54.3022 27.144 54.8142 27.0693 55.2195 26.92C55.6248 26.7707 55.8275 26.4613 55.8275 25.992ZM86.3298 8.488V25.992C86.3298 26.2693 86.4044 26.4933 86.5538 26.664C86.7031 26.8133 86.8951 26.92 87.1298 26.984C87.3858 27.048 87.6631 27.0907 87.9618 27.112C88.2604 27.1333 88.5591 27.144 88.8578 27.144H89.4018V29H78.7138V27.144H79.0658C79.6844 27.144 80.1964 27.0693 80.6018 26.92C81.0071 26.7707 81.2098 26.4613 81.2098 25.992V9.288C81.2098 8.81867 81.0071 8.50933 80.6018 8.36C80.1964 8.21067 79.6844 8.136 79.0658 8.136H78.7138V6.28H95.9938V12.616H93.6898L93.4018 9.896C93.3591 9.512 93.2098 9.224 92.9538 9.032C92.6978 8.81867 92.3138 8.68 91.8018 8.616C91.2898 8.53067 90.6498 8.488 89.8818 8.488H86.3298ZM85.4338 16.616C86.3511 16.552 87.2364 16.5093 88.0898 16.488C88.9644 16.4453 89.8284 16.4027 90.6818 16.36C91.5564 16.3173 92.4204 16.2747 93.2738 16.232V18.952C92.4204 18.888 91.5564 18.8347 90.6818 18.792C89.8284 18.7493 88.9644 18.7067 88.0898 18.664C87.2364 18.6213 86.3511 18.5787 85.4338 18.536V16.616Z" />
<path d="M0.867188 39.4688H3.88477C4.5332 39.4688 5.08594 39.5664 5.54297 39.7617C6 39.957 6.34961 40.2461 6.5918 40.6289C6.83789 41.0078 6.96094 41.4766 6.96094 42.0352C6.96094 42.4609 6.88281 42.8359 6.72656 43.1602C6.57031 43.4844 6.34961 43.7578 6.06445 43.9805C5.7793 44.1992 5.43945 44.3691 5.04492 44.4902L4.59961 44.707H1.88672L1.875 43.541H3.9082C4.25977 43.541 4.55273 43.4785 4.78711 43.3535C5.02148 43.2285 5.19727 43.0586 5.31445 42.8438C5.43555 42.625 5.49609 42.3789 5.49609 42.1055C5.49609 41.8086 5.4375 41.5508 5.32031 41.332C5.20703 41.1094 5.03125 40.9395 4.79297 40.8223C4.55469 40.7012 4.25195 40.6406 3.88477 40.6406H2.33789V48H0.867188V39.4688ZM5.73633 48L3.73242 44.168L5.27344 44.1621L7.30664 47.9238V48H5.73633ZM14.0098 46.834V48H9.48047V46.834H14.0098ZM9.89648 39.4688V48H8.42578V39.4688H9.89648ZM13.418 43.0312V44.1797H9.48047V43.0312H13.418ZM13.9805 39.4688V40.6406H9.48047V39.4688H13.9805ZM18.5332 40.6055L15.9844 48H14.4434L17.6543 39.4688H18.6387L18.5332 40.6055ZM20.666 48L18.1113 40.6055L18 39.4688H18.9902L22.2129 48H20.666ZM20.543 44.8359V46.002H15.9023V44.8359H20.543ZM28.5117 46.834V48H24.2285V46.834H28.5117ZM24.6387 39.4688V48H23.168V39.4688H24.6387ZM35.8652 39.4688V48H34.4062V39.4688H35.8652ZM38.543 39.4688V40.6406H31.752V39.4688H38.543ZM41.2383 39.4688V48H39.7676V39.4688H41.2383ZM43.6641 39.4688H44.9766L47.4434 46.0488L49.9043 39.4688H51.2168L47.959 48H46.916L43.6641 39.4688ZM43.0664 39.4688H44.3145L44.5312 45.1641V48H43.0664V39.4688ZM50.5664 39.4688H51.8203V48H50.3496V45.1641L50.5664 39.4688ZM59.1504 46.834V48H54.6211V46.834H59.1504ZM55.0371 39.4688V48H53.5664V39.4688H55.0371ZM58.5586 43.0312V44.1797H54.6211V43.0312H58.5586ZM59.1211 39.4688V40.6406H54.6211V39.4688H59.1211ZM64.8105 39.4688V48H63.3398V39.4688H64.8105ZM68.291 43.2012V44.3672H64.4355V43.2012H68.291ZM68.7773 39.4688V40.6406H64.4355V39.4688H68.7773ZM71.5195 39.4688V48H70.0488V39.4688H71.5195ZM80.1152 39.4688V48H78.6445L74.8184 41.8887V48H73.3477V39.4688H74.8184L78.6562 45.5918V39.4688H80.1152ZM85.2949 40.6055L82.7461 48H81.2051L84.416 39.4688H85.4004L85.2949 40.6055ZM87.4277 48L84.873 40.6055L84.7617 39.4688H85.752L88.9746 48H87.4277ZM87.3047 44.8359V46.002H82.6641V44.8359H87.3047ZM96.6973 39.4688V48H95.2266L91.4004 41.8887V48H89.9297V39.4688H91.4004L95.2383 45.5918V39.4688H96.6973ZM103.488 45.2227H104.953C104.906 45.7812 104.75 46.2793 104.484 46.7168C104.219 47.1504 103.846 47.4922 103.365 47.7422C102.885 47.9922 102.301 48.1172 101.613 48.1172C101.086 48.1172 100.611 48.0234 100.189 47.8359C99.7676 47.6445 99.4062 47.375 99.1055 47.0273C98.8047 46.6758 98.5742 46.252 98.4141 45.7559C98.2578 45.2598 98.1797 44.7051 98.1797 44.0918V43.3828C98.1797 42.7695 98.2598 42.2148 98.4199 41.7188C98.584 41.2227 98.8184 40.7988 99.123 40.4473C99.4277 40.0918 99.793 39.8203 100.219 39.6328C100.648 39.4453 101.131 39.3516 101.666 39.3516C102.346 39.3516 102.92 39.4766 103.389 39.7266C103.857 39.9766 104.221 40.3223 104.479 40.7637C104.74 41.2051 104.9 41.7109 104.959 42.2812H103.494C103.455 41.9141 103.369 41.5996 103.236 41.3379C103.107 41.0762 102.916 40.877 102.662 40.7402C102.408 40.5996 102.076 40.5293 101.666 40.5293C101.33 40.5293 101.037 40.5918 100.787 40.7168C100.537 40.8418 100.328 41.0254 100.16 41.2676C99.9922 41.5098 99.8652 41.8086 99.7793 42.1641C99.6973 42.5156 99.6562 42.918 99.6562 43.3711V44.0918C99.6562 44.5215 99.6934 44.9121 99.7676 45.2637C99.8457 45.6113 99.9629 45.9102 100.119 46.1602C100.279 46.4102 100.482 46.6035 100.729 46.7402C100.975 46.877 101.27 46.9453 101.613 46.9453C102.031 46.9453 102.369 46.8789 102.627 46.7461C102.889 46.6133 103.086 46.4199 103.219 46.166C103.355 45.9082 103.445 45.5938 103.488 45.2227ZM111.873 46.834V48H107.344V46.834H111.873ZM107.76 39.4688V48H106.289V39.4688H107.76ZM111.281 43.0312V44.1797H107.344V43.0312H111.281ZM111.844 39.4688V40.6406H107.344V39.4688H111.844Z" />
</svg>
