<svg width="118" height="52" viewBox="0 0 118 52" fill="none" xmlns="http://www.w3.org/2000/svg">
<path d="M0.992 33V31.592L5.248 31.112H6.688L10.912 31.592V33H0.992ZM3.296 33C3.33867 31.9973 3.36 30.9413 3.36 29.832C3.38133 28.7227 3.392 27.6027 3.392 26.472C3.392 25.32 3.392 24.1893 3.392 23.08V21.832C3.392 20.7227 3.392 19.6133 3.392 18.504C3.392 17.3733 3.38133 16.2533 3.36 15.144C3.36 14.0347 3.33867 12.9787 3.296 11.976H8.544C8.52267 12.9787 8.50133 14.0347 8.48 15.144C8.45867 16.232 8.448 17.3413 8.448 18.472C8.448 19.6027 8.448 20.744 8.448 21.896V22.984C8.448 24.1147 8.448 25.256 8.448 26.408C8.448 27.56 8.45867 28.6907 8.48 29.8C8.50133 30.9093 8.52267 31.976 8.544 33H3.296ZM17.92 33.416C16.5973 33.416 15.552 33.192 14.784 32.744C14.0373 32.2747 13.5573 31.4533 13.344 30.28L12.544 26.472C12.3947 25.7467 12.2027 25.1493 11.968 24.68C11.7333 24.2107 11.4133 23.8587 11.008 23.624C10.6027 23.368 10.08 23.24 9.44 23.24H5.952V21.768H9.632C10.6773 21.768 11.4987 21.576 12.096 21.192C12.6933 20.7867 13.1093 20.2747 13.344 19.656C13.5787 19.016 13.696 18.3227 13.696 17.576C13.696 16.2107 13.3653 15.1973 12.704 14.536C12.0427 13.8533 11.072 13.512 9.792 13.512H5.888V11.976H10.72C13.3227 11.976 15.2853 12.4453 16.608 13.384C17.9307 14.3013 18.592 15.592 18.592 17.256C18.592 18.1093 18.3253 18.9413 17.792 19.752C17.28 20.5413 16.448 21.2027 15.296 21.736C14.144 22.248 12.6293 22.5467 10.752 22.632V22.344C12.0533 22.3867 13.1307 22.5147 13.984 22.728C14.8373 22.9413 15.5307 23.2507 16.064 23.656C16.5973 24.0613 17.0027 24.5627 17.28 25.16C17.5787 25.7573 17.824 26.4613 18.016 27.272L19.264 32.456L16.96 31.08L21.28 31.592V33C20.832 33.1067 20.4373 33.1813 20.096 33.224C19.7547 33.288 19.4133 33.3307 19.072 33.352C18.752 33.3947 18.368 33.416 17.92 33.416ZM0.992 13.384V11.976H6.272V13.864H5.248L0.992 13.384ZM29.7287 33V31.592L34.0807 31.112H35.8087L40.2247 31.592V33H29.7287ZM32.2887 33C32.3314 31.9973 32.3634 30.9413 32.3847 29.832C32.4061 28.7227 32.4167 27.6027 32.4167 26.472C32.4167 25.32 32.4167 24.1893 32.4167 23.08V21.832C32.4167 20.7227 32.4167 19.6133 32.4167 18.504C32.4167 17.3733 32.4061 16.2533 32.3847 15.144C32.3847 14.0347 32.3634 12.9787 32.3207 11.976H37.6327C37.6114 12.9787 37.5901 14.0347 37.5687 15.144C37.5474 16.232 37.5261 17.3413 37.5047 18.472C37.5047 19.6027 37.5047 20.7227 37.5047 21.832V23.048C37.5047 24.1573 37.5047 25.288 37.5047 26.44C37.5261 27.5707 37.5474 28.6907 37.5687 29.8C37.5901 30.9093 37.6114 31.976 37.6327 33H32.2887ZM25.7287 17.992L25.9207 11.976H44.0327L44.2248 17.992H42.1448L40.8327 12.072L42.7847 13.48H27.1687L29.1207 12.072L27.8087 17.992H25.7287ZM50.9507 33V31.592L55.2067 31.112H56.9347L61.2867 31.592V33H50.9507ZM53.2547 33C53.2974 31.9973 53.3187 30.9413 53.3187 29.832C53.3401 28.7227 53.3507 27.6027 53.3507 26.472C53.3507 25.32 53.3507 24.1893 53.3507 23.08V21.832C53.3507 20.7227 53.3507 19.6133 53.3507 18.504C53.3507 17.3733 53.3401 16.2533 53.3187 15.144C53.3187 14.0347 53.2974 12.9787 53.2547 11.976H58.5667C58.5454 12.9787 58.5241 14.0347 58.5027 15.144C58.4814 16.232 58.4707 17.3413 58.4707 18.472C58.4707 19.6027 58.4707 20.7227 58.4707 21.832V22.984C58.4707 24.1147 58.4707 25.256 58.4707 26.408C58.4707 27.56 58.4814 28.6907 58.5027 29.8C58.5241 30.9093 58.5454 31.976 58.5667 33H53.2547ZM55.9427 22.984V21.384H62.6307V22.984H55.9427ZM62.4707 25.896L61.7987 22.632V21.832L62.4707 18.696H63.9747V25.896H62.4707ZM50.9507 13.384V11.976H56.2307V13.864H55.2067L50.9507 13.384ZM64.9987 17.512L63.6867 12.68L64.8387 13.48H55.7507V11.976H66.7907L67.0787 17.512H64.9987Z" />
<path d="M1.05682 49V40.2727H4.00568C4.6875 40.2727 5.24716 40.3892 5.68466 40.6222C6.12216 40.8523 6.44602 41.169 6.65625 41.5724C6.86648 41.9759 6.97159 42.4347 6.97159 42.9489C6.97159 43.4631 6.86648 43.919 6.65625 44.3168C6.44602 44.7145 6.12358 45.027 5.68892 45.2543C5.25426 45.4787 4.69886 45.5909 4.02273 45.5909H1.63636V44.6364H3.98864C4.45455 44.6364 4.82955 44.5682 5.11364 44.4318C5.40057 44.2955 5.60795 44.1023 5.7358 43.8523C5.86648 43.5994 5.93182 43.2983 5.93182 42.9489C5.93182 42.5994 5.86648 42.294 5.7358 42.0327C5.60511 41.7713 5.39631 41.5696 5.10938 41.4276C4.82244 41.2827 4.44318 41.2102 3.97159 41.2102H2.11364V49H1.05682ZM5.16477 45.0795L7.3125 49H6.08523L3.97159 45.0795H5.16477ZM8.7326 49V40.2727H13.9996V41.2102H9.78942V44.1591H13.7269V45.0966H9.78942V48.0625H14.0678V49H8.7326ZM16.2624 49H15.1545L18.359 40.2727H19.4499L22.6545 49H21.5465L18.9386 41.6534H18.8704L16.2624 49ZM16.6715 45.5909H21.1374V46.5284H16.6715V45.5909ZM24.0138 49V40.2727H25.0707V48.0625H29.1275V49H24.0138ZM33.6616 41.2102V40.2727H40.207V41.2102H37.4627V49H36.4059V41.2102H33.6616ZM42.8949 40.2727V49H41.8381V40.2727H42.8949ZM45.0138 40.2727H46.2752L49.2411 47.517H49.3434L52.3093 40.2727H53.5707V49H52.582V42.3693H52.4968L49.7695 49H48.815L46.0877 42.3693H46.0025V49H45.0138V40.2727ZM55.6896 49V40.2727H60.9567V41.2102H56.7464V44.1591H60.6839V45.0966H56.7464V48.0625H61.0249V49H55.6896ZM66.2365 49V40.2727H71.4695V41.2102H67.2933V44.1591H71.0774V45.0966H67.2933V49H66.2365ZM74.3363 40.2727V49H73.2795V40.2727H74.3363ZM83.3757 40.2727V49H82.353L77.5973 42.1477H77.5121V49H76.4553V40.2727H77.478L82.2507 47.142H82.3359V40.2727H83.3757ZM85.8484 49H84.7404L87.945 40.2727H89.0359L92.2404 49H91.1325L88.5245 41.6534H88.4563L85.8484 49ZM86.2575 45.5909H90.7234V46.5284H86.2575V45.5909ZM100.52 40.2727V49H99.4975L94.7418 42.1477H94.6566V49H93.5998V40.2727H94.6225L99.3952 47.142H99.4805V40.2727H100.52ZM109.658 43H108.601C108.538 42.696 108.429 42.429 108.273 42.1989C108.119 41.9688 107.932 41.7756 107.71 41.6193C107.491 41.4602 107.249 41.3409 106.982 41.2614C106.714 41.1818 106.436 41.142 106.146 41.142C105.618 41.142 105.139 41.2756 104.71 41.5426C104.284 41.8097 103.945 42.2031 103.692 42.723C103.442 43.2429 103.317 43.8807 103.317 44.6364C103.317 45.392 103.442 46.0298 103.692 46.5497C103.945 47.0696 104.284 47.4631 104.71 47.7301C105.139 47.9972 105.618 48.1307 106.146 48.1307C106.436 48.1307 106.714 48.0909 106.982 48.0114C107.249 47.9318 107.491 47.8139 107.71 47.6577C107.932 47.4986 108.119 47.304 108.273 47.0739C108.429 46.8409 108.538 46.5739 108.601 46.2727H109.658C109.578 46.7187 109.433 47.1179 109.223 47.4702C109.013 47.8224 108.751 48.1222 108.439 48.3693C108.126 48.6136 107.776 48.7997 107.386 48.9276C107 49.0554 106.587 49.1193 106.146 49.1193C105.402 49.1193 104.74 48.9375 104.161 48.5739C103.581 48.2102 103.125 47.6932 102.793 47.0227C102.46 46.3523 102.294 45.5568 102.294 44.6364C102.294 43.7159 102.46 42.9205 102.793 42.25C103.125 41.5795 103.581 41.0625 104.161 40.6989C104.74 40.3352 105.402 40.1534 106.146 40.1534C106.587 40.1534 107 40.2173 107.386 40.3452C107.776 40.473 108.126 40.6605 108.439 40.9077C108.751 41.152 109.013 41.4503 109.223 41.8026C109.433 42.152 109.578 42.5511 109.658 43ZM111.365 49V40.2727H116.632V41.2102H112.422V44.1591H116.36V45.0966H112.422V48.0625H116.701V49H111.365Z" />
</svg>
