<svg
    width="1119"
    height="68"
    viewBox="0 0 1119 68"
    fill="none"
    xmlns="http://www.w3.org/2000/svg"
>
<path
        d="M0 65.5734V0.884583H25.5078C30.3904 0.884583 34.5577 1.75836 38.0091 3.50591C41.4819 5.23254 44.1232 7.68592 45.9331 10.8655C47.7639 14.0242 48.6796 17.7412 48.6796 22.0159C48.6796 26.3115 47.7535 30.007 45.9017 33.1024C44.0495 36.1768 41.3663 38.5355 37.8511 40.1779C34.3579 41.8203 30.1274 42.6417 25.1605 42.6417H8.08145V31.6494H22.9506C25.5606 31.6494 27.7282 31.2915 29.4538 30.5757C31.1795 29.8594 32.4633 28.7858 33.3053 27.3538C34.1681 25.9217 34.5995 24.1428 34.5995 22.0159C34.5995 19.868 34.1681 18.0567 33.3053 16.5828C32.4633 15.1088 31.1691 13.9928 29.4225 13.2347C27.6968 12.4556 25.5182 12.0658 22.8873 12.0658H13.6695V65.5734H0ZM34.9154 36.1349L50.9842 65.5734H35.8943L20.1728 36.1349H34.9154ZM55.8773 12.1605V0.884583H108.977V12.1605H89.183V65.5734H75.6714V12.1605H55.8773ZM117.722 65.5734V0.884583H160.53V12.1605H131.391V27.5751H157.688V38.8515H131.391V65.5734H117.722Z"
        fill=""
    />
<path
        d="M204.094 0.848938V66.8489H195.094V0.848938H204.094Z"
        fill="#D0D0D0"
        stroke="#D0D0D0"
    />
<path
        d="M242.941 65.5734V0.884606H268.449C273.331 0.884606 277.499 1.75838 280.95 3.50594C284.423 5.23256 287.064 7.68594 288.874 10.8655C290.705 14.0242 291.62 17.7412 291.62 22.0159C291.62 26.3115 290.694 30.007 288.843 33.1024C286.99 36.1768 284.307 38.5355 280.793 40.1779C277.299 41.8203 273.068 42.6417 268.101 42.6417H251.022V31.6494H265.891C268.501 31.6494 270.669 31.2915 272.395 30.5758C274.12 29.8595 275.405 28.7858 276.246 27.3538C277.109 25.9217 277.54 24.1428 277.54 22.0159C277.54 19.8681 277.109 18.0567 276.246 16.5828C275.405 15.1089 274.11 13.9928 272.363 13.2347C270.638 12.4556 268.459 12.0658 265.828 12.0658H256.61V65.5734H242.941ZM277.856 36.135L293.925 65.5734H278.835L263.114 36.135H277.856ZM301.281 65.5734V0.884606H344.846V12.1605H314.95V27.5751H342.605V38.8515H314.95V54.297H344.972V65.5734H301.281ZM366.858 65.5734H352.21L374.529 0.884606H392.145L414.434 65.5734H399.785L383.59 15.6666H383.084L366.858 65.5734ZM365.943 40.1465H400.542V50.8228H365.943V40.1465ZM422.215 65.5734V0.884606H435.885V54.297H463.6V65.5734H422.215ZM490.767 12.1605V0.884606H543.866V12.1605H524.073V65.5734H510.56V12.1605H490.767ZM566.279 0.884606V65.5734H552.609V0.884606H566.279ZM577.527 0.884606H594.387L612.193 44.3474H612.951L630.752 0.884606H647.611V65.5734H634.355V23.4689H633.816L617.082 65.2574H608.056L591.322 23.3109H590.789V65.5734H577.527V0.884606ZM658.875 65.5734V0.884606H702.441V12.1605H672.545V27.5751H700.197V38.8515H672.545V54.297H702.566V65.5734H658.875ZM733.885 65.5734V0.884606H776.693V12.1605H747.549V27.5751H773.848V38.8515H747.549V65.5734H733.885ZM799.555 0.884606V65.5734H785.886V0.884606H799.555ZM864.88 0.884606V65.5734H853.073L824.944 24.8585H824.468V65.5734H810.798V0.884606H822.8L850.704 41.5676H851.274V0.884606H864.88ZM887.32 65.5734H872.667L894.986 0.884606H912.604L934.891 65.5734H920.244L904.048 15.6666H903.541L887.32 65.5734ZM886.399 40.1465H921.002V50.8228H886.399V40.1465ZM996.754 0.884606V65.5734H984.946L956.818 24.8585H956.342V65.5734H942.672V0.884606H954.668L982.578 41.5676H983.148V0.884606H996.754ZM1065.09 23.5317H1051.27C1051.01 21.7422 1050.5 20.1522 1049.72 18.7625C1048.94 17.3514 1047.94 16.1511 1046.72 15.1617C1045.5 14.1718 1044.09 13.4136 1042.49 12.8873C1040.91 12.3609 1039.2 12.0977 1037.34 12.0977C1034 12.0977 1031.08 12.9291 1028.6 14.593C1026.11 16.2354 1024.19 18.6359 1022.82 21.7946C1021.45 24.9323 1020.77 28.7434 1020.77 33.229C1020.77 37.8407 1021.45 41.7151 1022.82 44.8529C1024.21 47.9901 1026.14 50.3592 1028.63 51.9598C1031.11 53.5603 1033.99 54.3603 1037.25 54.3603C1039.08 54.3603 1040.78 54.118 1042.33 53.6335C1043.91 53.1496 1045.31 52.4437 1046.53 51.5176C1047.75 50.5701 1048.76 49.4221 1049.56 48.0743C1050.38 46.727 1050.95 45.1898 1051.27 43.4627L1065.09 43.526C1064.74 46.4952 1063.84 49.3588 1062.41 52.1178C1061 54.8553 1059.09 57.3081 1056.69 59.4774C1054.31 61.6252 1051.47 63.3309 1048.17 64.5945C1044.89 65.8366 1041.17 66.4577 1037.03 66.4577C1031.26 66.4577 1026.1 65.1522 1021.56 62.5414C1017.03 59.93 1013.46 56.1502 1010.82 51.2016C1008.21 46.253 1006.91 40.2621 1006.91 33.229C1006.91 26.1744 1008.23 20.1731 1010.89 15.2245C1013.54 10.2759 1017.14 6.5066 1021.68 3.91666C1026.23 1.3058 1031.34 0 1037.03 0C1040.78 0 1044.25 0.526202 1047.44 1.57944C1050.66 2.63216 1053.51 4.16938 1056 6.1911C1058.48 8.19137 1060.51 10.6447 1062.06 13.5507C1063.64 16.4567 1064.65 19.7838 1065.09 23.5317ZM1074.89 65.5734V0.884606H1118.46V12.1605H1088.56V27.5751H1116.22V38.8515H1088.56V54.297H1118.59V65.5734H1074.89Z"
        fill=""
    />
</svg>
